<?xml version="1.0" encoding="utf-8" ?>
<svg xmlns="http://www.w3.org/2000/svg" xmlns:xlink="http://www.w3.org/1999/xlink" version="1.1" width="210" height="236" viewBox="45 30 210 236">
  <g id="widget" transform="matrix(1,0,0,1,150,150)">
    <path d="M41.9201,-91.6005 C25.781,-91.6005 11.1089,-85.522 0,-75.6709 C-11.1089,-85.7316 -25.781,-91.6005 -41.9201,-91.6005 C-76.7137,-91.6005 -104.8,-63.514 -104.8,-28.7203 L-104.8,118 L-62.8801,118 L-62.8801,-28.7203 C-62.8801,-40.2484 -53.4481,-49.6804 -41.9201,-49.6804 C-30.3921,-49.6804 -20.96,-40.2484 -20.96,-28.7203 L-20.96,118 L20.96,118 L20.96,-28.7203 C20.96,-40.2484 30.3921,-49.6804 41.9201,-49.6804 C53.4481,-49.6804 62.8801,-40.2484 62.8801,-28.7203 L62.8801,118 L104.8,118 L104.8,-28.7203 C104.8,-63.514 76.7137,-91.6005 41.9201,-91.6005 Z" fill="#a63131" fill-opacity="1"/>
    <path d="M-76.1664,-118 L0,-2.59642 L76.1664,-118 L0,112.807 Z" fill="#4655cf" fill-opacity="1"/>
  </g>
</svg>
